<svg width="31" height="30" viewBox="0 0 31 30" fill="none" xmlns="http://www.w3.org/2000/svg">
<path d="M15.4297 18.75C17.5008 18.75 19.1797 17.0711 19.1797 15C19.1797 12.9289 17.5008 11.25 15.4297 11.25C13.3586 11.25 11.6797 12.9289 11.6797 15C11.6797 17.0711 13.3586 18.75 15.4297 18.75Z" stroke="#318448" stroke-width="1.5" stroke-miterlimit="10" stroke-linecap="round" stroke-linejoin="round"/>
<path d="M2.92969 16.1V13.9C2.92969 12.6 3.99219 11.525 5.30469 11.525C7.56719 11.525 8.49219 9.92504 7.35469 7.96254C6.70469 6.83754 7.09219 5.37504 8.22969 4.72504L10.3922 3.48754C11.3797 2.90004 12.6547 3.25004 13.2422 4.23754L13.3797 4.47504C14.5047 6.43754 16.3547 6.43754 17.4922 4.47504L17.6297 4.23754C18.2172 3.25004 19.4922 2.90004 20.4797 3.48754L22.6422 4.72504C23.7797 5.37504 24.1672 6.83754 23.5172 7.96254C22.3797 9.92504 23.3047 11.525 25.5672 11.525C26.8672 11.525 27.9422 12.5875 27.9422 13.9V16.1C27.9422 17.4 26.8797 18.475 25.5672 18.475C23.3047 18.475 22.3797 20.075 23.5172 22.0375C24.1672 23.175 23.7797 24.625 22.6422 25.275L20.4797 26.5125C19.4922 27.1 18.2172 26.75 17.6297 25.7625L17.4922 25.525C16.3672 23.5625 14.5172 23.5625 13.3797 25.525L13.2422 25.7625C12.6547 26.75 11.3797 27.1 10.3922 26.5125L8.22969 25.275C7.09219 24.625 6.70469 23.1625 7.35469 22.0375C8.49219 20.075 7.56719 18.475 5.30469 18.475C3.99219 18.475 2.92969 17.4 2.92969 16.1Z" stroke="#318448" stroke-width="1.5" stroke-miterlimit="10" stroke-linecap="round" stroke-linejoin="round"/>
</svg>
